<svg width="20" height="20" viewBox="0 0 20 20" fill="none" xmlns="http://www.w3.org/2000/svg">
<g clip-path="url(#clip0)">
<path d="M9.99999 18.3333C14.6024 18.3333 18.3333 14.6024 18.3333 10C18.3333 5.39763 14.6024 1.66667 9.99999 1.66667C5.39762 1.66667 1.66666 5.39763 1.66666 10C1.66666 14.6024 5.39762 18.3333 9.99999 18.3333Z" stroke="#B2B8CA" stroke-width="2" stroke-linecap="round" stroke-linejoin="round"/>
<path fill-rule="evenodd" clip-rule="evenodd" d="M9.00075 11.8971V11.4627C9.00075 11.2521 9.02268 11.0569 9.06656 10.877C9.11044 10.6971 9.17844 10.5238 9.27058 10.3571C9.36272 10.1903 9.48557 10.0236 9.63914 9.85689C9.79271 9.69016 9.98357 9.51027 10.2117 9.31721C10.4487 9.10661 10.6329 8.91355 10.7646 8.73805C10.8962 8.56254 10.962 8.34755 10.962 8.09307C10.962 7.82981 10.8633 7.59727 10.6658 7.39544C10.4684 7.19361 10.1986 7.0927 9.85633 7.0927C9.67205 7.0927 9.50532 7.12341 9.35614 7.18484C9.20696 7.24626 9.07533 7.32963 8.96126 7.43493C8.84718 7.54023 8.75285 7.6587 8.67826 7.79033C8.60367 7.92196 8.54882 8.05797 8.51372 8.19837L7 7.56656C7.0702 7.32085 7.18208 7.07515 7.33565 6.82944C7.48922 6.58374 7.68227 6.36216 7.91481 6.16472C8.14736 5.96728 8.42158 5.80713 8.73749 5.68428C9.0534 5.56143 9.40879 5.5 9.80368 5.5C10.2249 5.5 10.611 5.56362 10.962 5.69086C11.313 5.8181 11.6136 5.9936 11.8637 6.21737C12.1137 6.44114 12.309 6.70659 12.4494 7.01372C12.5898 7.32086 12.66 7.64992 12.66 8.00093C12.66 8.25541 12.6293 8.48357 12.5679 8.6854C12.5064 8.88723 12.4231 9.07589 12.3178 9.2514C12.2125 9.4269 12.0896 9.59143 11.9492 9.745C11.8088 9.89857 11.6596 10.0499 11.5017 10.1991C11.3525 10.3395 11.2275 10.4668 11.1265 10.5808C11.0256 10.6949 10.9466 10.8068 10.8896 10.9165C10.8326 11.0262 10.7909 11.1425 10.7646 11.2653C10.7382 11.3882 10.7251 11.5286 10.7251 11.6865V11.8971H9.00075ZM9.84317 15.2143C9.52726 15.2143 9.25962 15.1024 9.04024 14.8786C8.82085 14.6549 8.71117 14.385 8.71117 14.0691C8.71117 13.7532 8.82085 13.4856 9.04024 13.2662C9.25962 13.0468 9.52726 12.9371 9.84317 12.9371C10.1591 12.9371 10.4289 13.0468 10.6527 13.2662C10.8764 13.4856 10.9883 13.7532 10.9883 14.0691C10.9883 14.385 10.8764 14.6549 10.6527 14.8786C10.4289 15.1024 10.1591 15.2143 9.84317 15.2143Z" fill="#B2B8CA"/>
</g>
<defs>
<clipPath id="clip0">
<rect width="20" height="20" fill="white"/>
</clipPath>
</defs>
</svg>
