<svg width="24" height="24" viewBox="0 0 24 24" fill="none" xmlns="http://www.w3.org/2000/svg">
<path d="M15.8776 17.036C15.0639 17.5674 14.0921 17.8764 13.0466 17.8764C12.2313 17.8764 11.4612 17.6885 10.7761 17.3541C9.9253 16.9389 9.20453 16.2972 8.69273 15.5076C8.16748 14.6971 7.86243 13.731 7.86243 12.6921C7.86243 11.521 8.2502 10.4418 8.90457 9.57402C9.85159 8.3182 11.3544 7.50793 13.0466 7.50793C15.9098 7.50793 18.2308 9.82898 18.2308 12.6921C18.2308 13.4268 18.0783 14.1246 17.8037 14.7565C17.3974 15.6913 16.7231 16.4837 15.8776 17.036Z" fill="#FEEE00" stroke="#333848"/>
<path d="M14.8878 10.6484L11.2352 14.7798" stroke="#333848" stroke-linecap="round"/>
<path d="M11.2352 10.6484L14.8878 14.7798" stroke="#333848" stroke-linecap="round"/>
<path d="M3.84345 5.11316L13.0203 5.11316C17.2061 5.11316 20.5993 8.50637 20.5993 12.6921V12.6921C20.5993 16.8778 17.2061 20.2711 13.0203 20.2711H10.5951" stroke="#333848" stroke-linecap="round"/>
<path d="M5.29549 3.25525L3.40076 5.11319L5.29549 7.30388" stroke="#333848" stroke-linecap="round"/>
<path d="M8.18159 20.2711H6.19393" stroke="#333848" stroke-linecap="round"/>
</svg>
