<svg width="22" height="23" viewBox="0 0 22 23" fill="none" xmlns="http://www.w3.org/2000/svg">
<rect x="2.33333" y="3.17822" width="16.669" height="16.5154" rx="8.25769" stroke="#404553"/>
<path d="M14.4007 13.0542L6.48612 21.7167L9.40727 15.2198H7.22265L10.0315 10.5792H7.84683L11.5919 1.91669H17.2095L13.4644 7.48544H15.6491L11.5919 13.0542H14.4007Z" fill="#FEEE00"/>
<path d="M6.48612 21.7167L6.0301 21.5117L6.85525 22.0539L6.48612 21.7167ZM14.4007 13.0542L14.7698 13.3914L15.5348 12.5542H14.4007V13.0542ZM11.5919 13.0542L11.1878 12.7598L10.609 13.5542H11.5919V13.0542ZM15.6491 7.48544L16.0532 7.77986L16.632 6.98544H15.6491V7.48544ZM13.4644 7.48544L13.0495 7.20641L12.5256 7.98544H13.4644V7.48544ZM17.2095 1.91669L17.6244 2.19571L18.1483 1.41669H17.2095V1.91669ZM11.5919 1.91669V1.41669H11.2633L11.133 1.71827L11.5919 1.91669ZM7.84683 10.5792L7.38788 10.3808L7.08594 11.0792H7.84683V10.5792ZM10.0315 10.5792L10.4592 10.8381L10.9185 10.0792H10.0315V10.5792ZM7.22265 15.2198L6.7949 14.9609L6.33557 15.7198H7.22265V15.2198ZM9.40727 15.2198L9.8633 15.4249L10.1803 14.7198H9.40727V15.2198ZM6.85525 22.0539L14.7698 13.3914L14.0316 12.7169L6.11699 21.3794L6.85525 22.0539ZM14.4007 12.5542H11.5919V13.5542H14.4007V12.5542ZM11.996 13.3486L16.0532 7.77986L15.2449 7.19101L11.1878 12.7598L11.996 13.3486ZM15.6491 6.98544H13.4644V7.98544H15.6491V6.98544ZM13.8793 7.76447L17.6244 2.19571L16.7946 1.63766L13.0495 7.20641L13.8793 7.76447ZM17.2095 1.41669H11.5919V2.41669H17.2095V1.41669ZM11.133 1.71827L7.38788 10.3808L8.30578 10.7776L12.0508 2.1151L11.133 1.71827ZM7.84683 11.0792H10.0315V10.0792H7.84683V11.0792ZM9.6037 10.3203L6.7949 14.9609L7.6504 15.4787L10.4592 10.8381L9.6037 10.3203ZM7.22265 15.7198H9.40727V14.7198H7.22265V15.7198ZM8.95125 15.0148L6.0301 21.5117L6.94215 21.9217L9.8633 15.4249L8.95125 15.0148Z" fill="#404553"/>
</svg>
