<svg width="24" height="24" viewBox="0 0 24 24" fill="none" xmlns="http://www.w3.org/2000/svg">
<path d="M4.4003 8.30438H19.7049V20.0687H4.4003V8.30438Z" fill="#FEEE00" stroke="#404553" stroke-linecap="round" stroke-linejoin="round"/>
<path fill-rule="evenodd" clip-rule="evenodd" d="M20.5501 9.01128C20.5501 10.1539 19.5931 11.0802 18.4126 11.0802C17.5579 11.0802 16.8205 10.5948 16.4784 9.8932C16.3951 9.72219 16.1551 9.72219 16.0717 9.8932C15.7297 10.5948 14.9922 11.0802 14.1376 11.0802C13.2829 11.0802 12.5455 10.5948 12.2034 9.8932C12.1201 9.72219 11.8801 9.72219 11.7967 9.8932C11.4547 10.5948 10.7172 11.0802 9.86257 11.0802C9.00794 11.0802 8.27047 10.5948 7.92844 9.8932C7.84507 9.72219 7.60507 9.72219 7.52171 9.8932C7.17968 10.5948 6.44221 11.0802 5.58757 11.0802C4.40707 11.0802 3.45007 10.1539 3.45007 9.01128L5.4977 4.20042C5.59592 4.03407 5.77868 3.9314 5.97663 3.9314H18.0235C18.2215 3.9314 18.4042 4.03407 18.5024 4.20042L20.5501 9.01128Z" fill="white" stroke="#404553"/>
<path d="M13.083 20.0687V13.4612H16.8591V17.7552" stroke="#404553" stroke-linecap="round"/>
<path d="M7.013 14.3639H10.513" stroke="#404553" stroke-linecap="round"/>
</svg>
