<svg width="40" height="40" viewBox="0 0 40 40" fill="none" xmlns="http://www.w3.org/2000/svg">
<rect width="40" height="40" rx="20" fill="#FFF8EC"/>
<path fill-rule="evenodd" clip-rule="evenodd" d="M24.0254 24.0244H23.2561V16.1221H26.6532L29.9305 18.8889V24.0244H29.3488" fill="#FEEE00"/>
<path d="M24.0254 24.0244H23.2561V16.1221H26.6532L29.9305 18.8889V24.0244H29.3488" stroke="#404553" stroke-linecap="round" stroke-linejoin="round"/>
<path fill-rule="evenodd" clip-rule="evenodd" d="M24.7502 17.7H26.4488L28.0744 19.0855V20.0707H24.7502V17.7Z" stroke="#404553" stroke-linecap="round" stroke-linejoin="round"/>
<rect x="12.3926" y="14.3098" width="10.6126" height="9.55138" fill="#FEEE00"/>
<path fill-rule="evenodd" clip-rule="evenodd" d="M14.3887 24.0244H12.5209V21.476M12.5209 16.6431V14.1465H23.2562V24.0244H19.9893" fill="#FEEE00"/>
<path d="M14.3887 24.5244C14.6648 24.5244 14.8887 24.3005 14.8887 24.0244C14.8887 23.7483 14.6648 23.5244 14.3887 23.5244V24.5244ZM12.5209 24.0244H12.0209C12.0209 24.3005 12.2448 24.5244 12.5209 24.5244V24.0244ZM13.0209 21.476C13.0209 21.1998 12.7971 20.976 12.5209 20.976C12.2448 20.976 12.0209 21.1998 12.0209 21.476H13.0209ZM12.0209 16.6431C12.0209 16.9192 12.2448 17.1431 12.5209 17.1431C12.797 17.1431 13.0209 16.9192 13.0209 16.6431H12.0209ZM12.5209 14.1465V13.6465C12.2448 13.6465 12.0209 13.8703 12.0209 14.1465H12.5209ZM23.2562 14.1465H23.7562C23.7562 13.8703 23.5323 13.6465 23.2562 13.6465V14.1465ZM23.2562 24.0244V24.5244C23.5323 24.5244 23.7562 24.3005 23.7562 24.0244H23.2562ZM19.9893 23.5244C19.7132 23.5244 19.4893 23.7483 19.4893 24.0244C19.4893 24.3005 19.7132 24.5244 19.9893 24.5244V23.5244ZM14.3887 23.5244H12.5209V24.5244H14.3887V23.5244ZM13.0209 24.0244V21.476H12.0209V24.0244H13.0209ZM13.0209 16.6431V14.1465H12.0209V16.6431H13.0209ZM12.5209 14.6465H23.2562V13.6465H12.5209V14.6465ZM22.7562 14.1465V24.0244H23.7562V14.1465H22.7562ZM23.2562 23.5244H19.9893V24.5244H23.2562V23.5244Z" fill="#404553"/>
<path fill-rule="evenodd" clip-rule="evenodd" d="M17.0058 26C17.8842 26 18.5962 25.2924 18.5962 24.4196C18.5962 23.5467 17.8842 22.8391 17.0058 22.8391C16.1275 22.8391 15.4154 23.5467 15.4154 24.4196C15.4154 25.2924 16.1275 26 17.0058 26Z" fill="#FEEE00" stroke="#404553" stroke-linecap="round" stroke-linejoin="round"/>
<path fill-rule="evenodd" clip-rule="evenodd" d="M26.6191 26C27.4975 26 28.2095 25.2924 28.2095 24.4196C28.2095 23.5467 27.4975 22.8391 26.6191 22.8391C25.7407 22.8391 25.0287 23.5467 25.0287 24.4196C25.0287 25.2924 25.7407 26 26.6191 26Z" fill="#FEEE00" stroke="#404553" stroke-linecap="round" stroke-linejoin="round"/>
<path d="M10.5329 17.9001H15.4577" stroke="#404553" stroke-linecap="round" stroke-linejoin="round"/>
<path d="M9.87439 19.6123H12.1668" stroke="#404553" stroke-linecap="round" stroke-linejoin="round"/>
</svg>
