<svg width="24" height="24" viewBox="0 0 24 24" fill="none" xmlns="http://www.w3.org/2000/svg">
<path d="M5.05909 7.96976C4.64045 7.96976 4.26111 7.7231 4.09129 7.34044C3.85408 6.80594 4.09508 6.18035 4.62958 5.94314L10.8511 3.18205C11.398 2.93932 12.0222 2.93932 12.5691 3.18205L18.7906 5.94314C19.1733 6.11296 19.4199 6.4923 19.4199 6.91094C19.4199 7.49571 18.9459 7.96976 18.3611 7.96976H5.05909Z" fill="#FEEE00" stroke="#404554" stroke-linecap="round"/>
<path d="M6 10.6C6 10.2686 6.26863 10 6.6 10H7.4C7.73137 10 8 10.2686 8 10.6V17.4C8 17.7314 7.73137 18 7.4 18H6.6C6.26863 18 6 17.7314 6 17.4V10.6Z" fill="white" stroke="#404554" stroke-linecap="round"/>
<rect x="11" y="10" width="2" height="8" rx="0.6" fill="white" stroke="#404554" stroke-linecap="round"/>
<path d="M16 10.6C16 10.2686 16.2686 10 16.6 10H17.4C17.7314 10 18 10.2686 18 10.6V17.4C18 17.7314 17.7314 18 17.4 18H16.6C16.2686 18 16 17.7314 16 17.4V10.6Z" fill="white" stroke="#404554" stroke-linecap="round"/>
<path d="M11.005 20.5093H4.56212" stroke="#404554" stroke-linecap="round"/>
<path d="M15.3462 20.7666C17.7437 20.7666 19.6873 18.823 19.6873 16.4254C19.6873 14.0278 17.7437 12.0842 15.3462 12.0842C12.9486 12.0842 11.005 14.0278 11.005 16.4254C11.005 18.823 12.9486 20.7666 15.3462 20.7666Z" fill="#FEEE00" stroke="#404554" stroke-linecap="round"/>
<path d="M13.9971 15.8311C14.4767 15.8311 14.8654 15.4424 14.8654 14.9628C14.8654 14.4833 14.4767 14.0946 13.9971 14.0946C13.5176 14.0946 13.1289 14.4833 13.1289 14.9628C13.1289 15.4424 13.5176 15.8311 13.9971 15.8311Z" fill="white" stroke="#404554" stroke-linecap="round"/>
<path d="M16.8545 19.0283C17.334 19.0283 17.7227 18.6396 17.7227 18.16C17.7227 17.6805 17.334 17.2918 16.8545 17.2918C16.375 17.2918 15.9862 17.6805 15.9862 18.16C15.9862 18.6396 16.375 19.0283 16.8545 19.0283Z" fill="white" stroke="#404554" stroke-linecap="round"/>
<path d="M17.0972 14.6141L13.6198 18.5342L17.0972 14.6141Z" fill="white"/>
<path d="M17.0972 14.6141L13.6198 18.5342" stroke="#404554" stroke-linecap="round"/>
</svg>
