<svg width="29" height="29" viewBox="0 0 29 29" fill="none" xmlns="http://www.w3.org/2000/svg">
<rect width="29" height="29" rx="14.5" fill="#FFF8EC"/>
<path fill-rule="evenodd" clip-rule="evenodd" d="M9.44108 13.2318C9.58142 16.0953 10.4574 19.0738 14.8585 20.5319C21.0312 18.4871 20.2703 13.4519 20.2703 9.93697C18.0284 9.93697 16.3109 9.32481 14.8586 7.9751C13.4064 9.32481 11.689 9.93697 9.44727 9.93697C9.44727 10.4034 9.43387 10.8965 9.42505 11.4059" fill="#FEEE00"/>
<path d="M9.44108 13.2318C9.58142 16.0953 10.4574 19.0738 14.8585 20.5319C21.0312 18.4871 20.2703 13.4519 20.2703 9.93697C18.0284 9.93697 16.3109 9.32481 14.8586 7.9751C13.4064 9.32481 11.689 9.93697 9.44727 9.93697C9.44727 10.4034 9.43387 10.8965 9.42505 11.4059" stroke="#404553" stroke-width="0.725" stroke-linecap="round" stroke-linejoin="round"/>
<rect x="12.9053" y="14.2256" width="3.90656" height="3.12525" fill="#FEEE00" stroke="#404553" stroke-width="0.725" stroke-linecap="round" stroke-linejoin="round"/>
<path fill-rule="evenodd" clip-rule="evenodd" d="M13.6865 12.9353V12.3068C13.6865 11.6405 14.2267 11.1003 14.8929 11.1003C15.5592 11.1003 16.0994 11.6405 16.0994 12.3068V12.9353" fill="#FEEE00"/>
<path d="M13.6865 12.9353V12.3068C13.6865 11.6405 14.2267 11.1003 14.8929 11.1003C15.5592 11.1003 16.0994 11.6405 16.0994 12.3068V12.9353" stroke="#404553" stroke-width="0.725" stroke-linecap="round" stroke-linejoin="round"/>
</svg>
